/* XPM */
static char * close_xpm[] = {
"16 16 58 1",
" 	c None",
".	c #101013",
"+	c #240F17",
"@	c #C01939",
"#	c #D01D3B",
"$	c #D01E39",
"%	c #BF1934",
"&	c #230F17",
"*	c #680F27",
"=	c #D51D43",
"-	c #FF464B",
";	c #FF4744",
">	c #FF483E",
",	c #FF4938",
"'	c #D41F33",
")	c #671024",
"!	c #680F28",
"~	c #E62A4E",
"{	c #FF4457",
"]	c #FF4745",
"^	c #FF4B2C",
"/	c #E62E30",
"(	c #651023",
"_	c #D51D48",
":	c #FF435D",
"<	c #FF4B2B",
"[	c #220F16",
"}	c #C01842",
"|	c #FF4264",
"1	c #FF435E",
"2	c #FF4458",
"3	c #FF483F",
"4	c #FF4939",
"5	c #BF1A30",
"6	c #D01B48",
"7	c #CF1E32",
"8	c #D01B49",
"9	c #FF464C",
"0	c #FF4B2D",
"a	c #FF4265",
"b	c #FF4746",
"c	c #BF1A31",
"d	c #D41C48",
"e	c #FF435F",
"f	c #FF4459",
"g	c #FF4840",
"h	c #FF493A",
"i	c #D31F33",
"j	c #210F17",
"k	c #670F28",
"l	c #E6294F",
"m	c #E52D31",
"n	c #641022",
"o	c #650F27",
"p	c #D41C44",
"q	c #D31F34",
"r	c #BE183A",
"s	c #BE1934",
"................",
"................",
".....+@#$%&.....",
"....*=-;>,')....",
"...!~{-]>,^/(...",
"..+_:{-]>,^<'[..",
"..}|12-]34^<<5..",
"..6|12-]34^<<7..",
"..8|129]340<<7..",
"..}a129b340<<c..",
"..&def9bgh0<ij..",
"...klf9bgh0mn...",
"....op9bghqn....",
".....[r#$sj.....",
"................",
"................"};
