/* XPM */
static char * C:\Users\Usuario\Downloads\pixmaps\close_xpm[] = {
"44 18 507 2",
"  	c None",
". 	c #936B64",
"+ 	c #FCFCFC",
"@ 	c #594743",
"# 	c #CCD1D7",
"$ 	c #91655C",
"% 	c #C8B3B2",
"& 	c #BC8E8A",
"* 	c #BF8F8A",
"= 	c #C08F8A",
"- 	c #C38F8A",
"; 	c #C48F8A",
"> 	c #C48F89",
", 	c #C88F89",
"' 	c #CA8F89",
") 	c #CC8F89",
"! 	c #CC9188",
"~ 	c #CE9288",
"{ 	c #CF9286",
"] 	c #D09286",
"^ 	c #CE9188",
"/ 	c #CC9089",
"( 	c #CB8F89",
"_ 	c #CA9089",
": 	c #C89089",
"< 	c #C79089",
"[ 	c #C49089",
"} 	c #C4908A",
"| 	c #C2908A",
"1 	c #C0908B",
"2 	c #BF908A",
"3 	c #BC8F8A",
"4 	c #C6ACAA",
"5 	c #57433E",
"6 	c #B2B8BD",
"7 	c #906259",
"8 	c #C8B1B0",
"9 	c #BC8A85",
"0 	c #BE8A85",
"a 	c #C08B85",
"b 	c #C08B84",
"c 	c #C38B84",
"d 	c #C48B82",
"e 	c #C68B82",
"f 	c #C88B82",
"g 	c #CB8B82",
"h 	c #CC8B82",
"i 	c #CC8C82",
"j 	c #CE8D82",
"k 	c #CE8E82",
"l 	c #CB8C82",
"m 	c #C88C82",
"n 	c #C78C82",
"o 	c #C48C82",
"p 	c #C28C84",
"q 	c #BF8A85",
"r 	c #BE8B85",
"s 	c #BC8B85",
"t 	c #C4A8A6",
"u 	c #53403D",
"v 	c #B2B8BE",
"w 	c #8F5E56",
"x 	c #C6AFAE",
"y 	c #B8857E",
"z 	c #BB857E",
"A 	c #BC857E",
"B 	c #BE867E",
"C 	c #BF867E",
"D 	c #C0867E",
"E 	c #C3867E",
"F 	c #C4877E",
"G 	c #C6877E",
"H 	c #C8887E",
"I 	c #CB887E",
"J 	c #CC887E",
"K 	c #856B6F",
"L 	c #535666",
"M 	c #866B6F",
"N 	c #CE887D",
"O 	c #CB877E",
"P 	c #CA877E",
"Q 	c #C7887E",
"R 	c #C4887E",
"S 	c #C3877E",
"T 	c #C0877E",
"U 	c #BF877E",
"V 	c #BC867E",
"W 	c #BB867F",
"X 	c #B8867F",
"Y 	c #C4A6A3",
"Z 	c #523E39",
"` 	c #8C594E",
" .	c #C4ABAA",
"..	c #B47E78",
"+.	c #B67E78",
"@.	c #B87E76",
"#.	c #B87F76",
"$.	c #BB7F76",
"%.	c #BC7F76",
"&.	c #BE8076",
"*.	c #C08076",
"=.	c #C07F76",
"-.	c #C48076",
";.	c #C48077",
">.	c #C78076",
",.	c #C88076",
"'.	c #CA8076",
").	c #FFFFFF",
"!.	c #85686C",
"~.	c #C67F76",
"{.	c #C47F76",
"].	c #C38076",
"^.	c #BC8076",
"/.	c #BA7F76",
"(.	c #B88076",
"_.	c #B87F77",
":.	c #B67F79",
"<.	c #C0A29F",
"[.	c #503B36",
"}.	c #8C534A",
"|.	c #C3A7A6",
"1.	c #B2776E",
"2.	c #B3776E",
"3.	c #B4776E",
"4.	c #B4786E",
"5.	c #B8786E",
"6.	c #BB786E",
"7.	c #BC786E",
"8.	c #BF786F",
"9.	c #C0786E",
"0.	c #C27A6E",
"a.	c #C47A6E",
"b.	c #C67A6F",
"c.	c #C7796E",
"d.	c #836468",
"e.	c #FDFDFD",
"f.	c #C8796E",
"g.	c #C67A6E",
"h.	c #C4796E",
"i.	c #C37A6E",
"j.	c #C07A6E",
"k.	c #BE776E",
"l.	c #BA786F",
"m.	c #B8786F",
"n.	c #B7786F",
"o.	c #B4786F",
"p.	c #B3786F",
"q.	c #BF9E9B",
"r.	c #4E3631",
"s.	c #874D43",
"t.	c #C0A3A2",
"u.	c #AC6F66",
"v.	c #AF6F66",
"w.	c #B07066",
"x.	c #B37066",
"y.	c #B47066",
"z.	c #B77066",
"A.	c #B87066",
"B.	c #BB7066",
"C.	c #BC7066",
"D.	c #BF7267",
"E.	c #C07265",
"F.	c #C37265",
"G.	c #C47265",
"H.	c #C47164",
"I.	c #836264",
"J.	c #FAFAFA",
"K.	c #C67264",
"L.	c #C37165",
"M.	c #BF7266",
"N.	c #BC7067",
"O.	c #BA7067",
"P.	c #B87067",
"Q.	c #B77067",
"R.	c #B47067",
"S.	c #B37067",
"T.	c #B07067",
"U.	c #AF6F67",
"V.	c #BC9896",
"W.	c #4C322D",
"X.	c #85473C",
"Y.	c #BE9F9D",
"Z.	c #A8645D",
"`.	c #AA665D",
" +	c #AC655D",
".+	c #AE665D",
"++	c #B0675C",
"@+	c #B4675C",
"#+	c #B6685A",
"$+	c #B8685A",
"%+	c #BA685B",
"&+	c #BC685A",
"*+	c #BF685A",
"=+	c #C0675A",
"-+	c #C0685A",
";+	c #C2685A",
">+	c #825E61",
",+	c #E9E9E9",
"'+	c #BC685B",
")+	c #B8685B",
"!+	c #B6685B",
"~+	c #B4675D",
"{+	c #B0675D",
"]+	c #AF675D",
"^+	c #AE665E",
"/+	c #AC665E",
"(+	c #AA665E",
"_+	c #A8645E",
":+	c #B8938F",
"<+	c #492D27",
"[+	c #711504",
"}+	c #AE7F7A",
"|+	c #862012",
"1+	c #882013",
"2+	c #881F12",
"3+	c #8C1F12",
"4+	c #8F2212",
"5+	c #902111",
"6+	c #942311",
"7+	c #982310",
"8+	c #9C230E",
"9+	c #A0240E",
"0+	c #A2240E",
"a+	c #A4230E",
"b+	c #A8230E",
"c+	c #AA230E",
"d+	c #AC250E",
"e+	c #AC260E",
"f+	c #784241",
"g+	c #AC260F",
"h+	c #AB240F",
"i+	c #A8240F",
"j+	c #A6240F",
"k+	c #A4240F",
"l+	c #A0240F",
"m+	c #9E240F",
"n+	c #9B230F",
"o+	c #982311",
"p+	c #942312",
"q+	c #902212",
"r+	c #8E2013",
"s+	c #8B2013",
"t+	c #A46863",
"u+	c #340B02",
"v+	c #B2B9BE",
"w+	c #711606",
"x+	c #AF7F7A",
"y+	c #882216",
"z+	c #8B2215",
"A+	c #8C2315",
"B+	c #902415",
"C+	c #922414",
"D+	c #942314",
"E+	c #982513",
"F+	c #9C2712",
"G+	c #A02812",
"H+	c #A32812",
"I+	c #A62812",
"J+	c #A82712",
"K+	c #AA2712",
"L+	c #AC2711",
"M+	c #784342",
"N+	c #E2E2E2",
"O+	c #AC2812",
"P+	c #AB2813",
"Q+	c #A82813",
"R+	c #A72813",
"S+	c #A42813",
"T+	c #A02813",
"U+	c #9E2713",
"V+	c #9B2613",
"W+	c #982413",
"X+	c #942415",
"Y+	c #8F2416",
"Z+	c #8C2416",
"`+	c #8B2316",
" @	c #882217",
".@	c #A66B65",
"+@	c #340C04",
"@@	c #701909",
"#@	c #AF847E",
"$@	c #88291C",
"%@	c #8A2B1C",
"&@	c #8C2A1C",
"*@	c #8E2B1C",
"=@	c #902C1C",
"-@	c #942C1B",
";@	c #972C1B",
">@	c #982B1A",
",@	c #9C2C1B",
"'@	c #A02E1A",
")@	c #A32D1A",
"!@	c #A42E1A",
"~@	c #A82E19",
"{@	c #AA301A",
"]@	c #784645",
"^@	c #DCDCDC",
"/@	c #AB301A",
"(@	c #A8301A",
"_@	c #A62F1B",
":@	c #A42F1B",
"<@	c #A22E1B",
"[@	c #9F2E1B",
"}@	c #982C1B",
"|@	c #962C1B",
"1@	c #932C1B",
"2@	c #902C1D",
"3@	c #8C2B1D",
"4@	c #8A2B1D",
"5@	c #A77069",
"6@	c #340E06",
"7@	c #711D0E",
"8@	c #B08882",
"9@	c #8C3426",
"0@	c #8C3326",
"a@	c #8F3426",
"b@	c #903426",
"c@	c #943626",
"d@	c #983526",
"e@	c #9C3825",
"f@	c #9E3724",
"g@	c #A23724",
"h@	c #A43924",
"i@	c #A73B24",
"j@	c #A83A22",
"k@	c #AA3A22",
"l@	c #D7D7D7",
"m@	c #784B49",
"n@	c #AB3B23",
"o@	c #A83B23",
"p@	c #A83B25",
"q@	c #A43A25",
"r@	c #A33825",
"s@	c #A03825",
"t@	c #9B3726",
"u@	c #983627",
"v@	c #943627",
"w@	c #933427",
"x@	c #903427",
"y@	c #8F3427",
"z@	c #8C3427",
"A@	c #A8766F",
"B@	c #36100A",
"C@	c #752115",
"D@	c #B18C85",
"E@	c #8F3D2E",
"F@	c #923F2E",
"G@	c #933F2E",
"H@	c #97402E",
"I@	c #99412E",
"J@	c #9B412E",
"K@	c #9E412E",
"L@	c #9F432E",
"M@	c #A3432E",
"N@	c #A5452E",
"O@	c #A7452D",
"P@	c #AB452C",
"Q@	c #784F4D",
"R@	c #794F4D",
"S@	c #AF452C",
"T@	c #AB452D",
"U@	c #A7452E",
"V@	c #A3442F",
"W@	c #A2432F",
"X@	c #9F412F",
"Y@	c #9D412F",
"Z@	c #9B412F",
"`@	c #97412F",
" #	c #97402F",
".#	c #933F2F",
"+#	c #923F2F",
"@#	c #924133",
"##	c #A97D76",
"$#	c #3A1410",
"%#	c #B1B4B7",
"&#	c #76271C",
"*#	c #B5918D",
"=#	c #964C3E",
"-#	c #974C3E",
";#	c #974D3E",
">#	c #994D3E",
",#	c #9B4D3E",
"'#	c #9E4F3E",
")#	c #9F4F3E",
"!#	c #A2503D",
"~#	c #A5513D",
"{#	c #A7513D",
"]#	c #AA533C",
"^#	c #AB543C",
"/#	c #AE553C",
"(#	c #AF553C",
"_#	c #B2553C",
":#	c #B2553D",
"<#	c #B1553D",
"[#	c #AF553D",
"}#	c #AB543D",
"|#	c #A9513E",
"1#	c #A7513E",
"2#	c #A5513E",
"3#	c #A2503E",
"4#	c #9F4F3F",
"5#	c #9D4D3F",
"6#	c #9B4D3F",
"7#	c #994D3F",
"8#	c #974D3F",
"9#	c #9B554B",
"0#	c #A78783",
"a#	c #481F19",
"b#	c #7A2E21",
"c#	c #B79892",
"d#	c #9B584D",
"e#	c #9D594D",
"f#	c #9E594C",
"g#	c #9F594C",
"h#	c #A2594A",
"i#	c #A35C4A",
"j#	c #A65C4A",
"k#	c #A75D4A",
"l#	c #AB5D4A",
"m#	c #AD5F4A",
"n#	c #AF604A",
"o#	c #B1614A",
"p#	c #B36149",
"q#	c #B66148",
"r#	c #B76148",
"s#	c #B76149",
"t#	c #B3614A",
"u#	c #AF614B",
"v#	c #AE5F4B",
"w#	c #AB5D4B",
"x#	c #A75D4B",
"y#	c #A65C4B",
"z#	c #A35B4B",
"A#	c #A1594B",
"B#	c #9F5D4F",
"C#	c #A3645A",
"D#	c #AE817B",
"E#	c #817170",
"F#	c #663D39",
"G#	c #833527",
"H#	c #C5B3B1",
"I#	c #B7918A",
"J#	c #B9918A",
"K#	c #BA9189",
"L#	c #BB9189",
"M#	c #BD9389",
"N#	c #BE9389",
"O#	c #BF9489",
"P#	c #C39588",
"Q#	c #C59588",
"R#	c #C69588",
"S#	c #C79788",
"T#	c #C79789",
"U#	c #C79589",
"V#	c #C69589",
"W#	c #C59589",
"X#	c #C39589",
"Y#	c #C29589",
"Z#	c #BF948A",
"`#	c #BF938A",
" $	c #BE938A",
".$	c #BB938A",
"+$	c #BB918A",
"@$	c #BB958F",
"#$	c #A78D8A",
"$$	c #7E6A69",
"%$	c #482823",
"&$	c #989C9E",
"*$	c #51595F",
"=$	c #5B2115",
"-$	c #4A1E15",
";$	c #4B1F15",
">$	c #4B2016",
",$	c #4D2017",
"'$	c #4D2118",
")$	c #4F2319",
"!$	c #50241A",
"~$	c #50261C",
"{$	c #51261E",
"]$	c #52271E",
"^$	c #52281F",
"/$	c #54291F",
"($	c #552920",
"_$	c #552A21",
":$	c #552A22",
"<$	c #562A22",
"[$	c #552B22",
"}$	c #542A22",
"|$	c #522A21",
"1$	c #512921",
"2$	c #502820",
"3$	c #4F271F",
"4$	c #4E261E",
"5$	c #4D261E",
"6$	c #4C241C",
"7$	c #4B231B",
"8$	c #49221A",
"9$	c #482118",
"0$	c #5D2A1F",
"a$	c #764239",
"b$	c #989DA0",
"c$	c #4A5359",
"d$	c #1C262E",
"e$	c #B0B3B6",
"f$	c #B0B4B7",
"g$	c #535A61",
"h$	c #1B252E",
". + + + + + + + + + + + + + + + + + + + + + + + + + + + + + + + + + + + + + + + + + @ # ",
"$ % & & * = = - ; > , , ' ) ! ~ { ] ] ] ] ] ] ] ] ] { ^ ! / ( _ : < [ } | 1 1 2 3 4 5 6 ",
"7 8 9 9 9 0 a b c d e f f g h i j j k k j k k k j k k i h i l m n e o p b q r s s t u v ",
"w x y y z A B C D E F G H H I J K L L L M N M L L L M J O P H Q F R S T U B V W X Y Z v ",
"`  ...+.@.#.$.%.&.*.=.-.;.>.,.'.L ).).).L !.L ).).).L '.,.,.~.{.].*.*.&.^./.(._.:.<.[.v ",
"}.|.1.2.3.4.5.5.6.7.8.9.0.a.b.c.d.L e.e.e.L e.e.e.L d.f.g.h.i.j.9.k.7.l.m.n.o.o.p.q.r.v ",
"s.t.u.v.w.w.x.y.z.A.B.C.D.E.F.G.H.I.L J.J.J.J.J.L I.K.G.L.E.E.M.N.O.P.Q.R.S.T.T.U.V.W.v ",
"X.Y.Z.Z.`. +.+++++@+#+$+%+&+*+=+-+;+>+L ,+,+,+L >+;+=+=+*+'+'+)+)+!+~+{+]+^+/+(+_+:+<+v ",
"[+}+|+1+2+3+4+5+6+7+8+9+0+a+b+c+d+e+f+L ,+,+,+L f+g+g+h+i+j+k+l+m+n+o+p+q+r+s+1+1+t+u+v+",
"w+x+y+y+z+A+B+C+D+E+F+G+H+I+J+K+L+M+L N+N+N+N+N+L M+O+P+Q+R+S+T+U+V+W+X+B+Y+Z+`+ @.@+@v+",
"@@#@$@%@&@*@=@-@;@>@,@'@)@!@~@{@]@L ^@^@^@L ^@^@^@L ]@/@(@_@:@<@[@,@}@|@1@2@3@3@4@5@6@v+",
"7@8@9@0@a@b@c@c@d@e@f@g@h@i@j@k@L l@l@l@L m@L l@l@l@L n@o@p@q@r@s@e@t@u@v@w@x@y@z@A@B@v+",
"C@D@E@E@F@G@H@I@J@K@L@M@N@O@P@P@Q@L L L R@S@R@L L L Q@T@T@U@U@V@W@X@Y@Z@`@ #.#+#@###$#%#",
"&#*#=#-#;#>#,#'#)#!#~#{#]#^#/#(#(#_#_#_#_#_#:#:#:#:#<#[#[#}#}#|#1#2#3#4#5#6#7#8#9#0#a#%#",
"b#c#d#e#f#g#h#i#j#k#l#m#n#o#p#p#q#r#r#r#r#r#s#s#s#s#s#p#t#o#u#v#w#w#x#y#z#A#B#C#D#E#F#%#",
"G#H#I#J#K#L#L#M#N#O#O#P#P#Q#R#R#S#S#S#S#S#S#T#T#T#T#T#U#V#W#X#X#Y#Z#`# $.$+$@$#$$$%$&$*$",
"=$-$-$-$;$>$,$'$)$!$~${$]$^$/$($_$_$:$<$:$:$:$[$:$:$}$}$|$1$2$3$4$5$6$7$8$9$9$0$a$b$c$d$",
"e$e$e$e$e$e$e$e$e$e$e$e$e$e$e$e$e$e$e$e$e$e$%#%#%#%#%#%#%#f$%#%#%#%#%#%#%#%#%#%#%#g$h$h$"};
