/* XPM */
static char * C:\Users\Usuario\Downloads\pixmaps\max_xpm[] = {
"25 18 101 2",
"  	c None",
". 	c #777A7D",
"+ 	c #FCFCFC",
"@ 	c #616568",
"# 	c #CFD1D4",
"$ 	c #979DA3",
"% 	c #969DA2",
"& 	c #979EA3",
"* 	c #989FA4",
"= 	c #989EA4",
"- 	c #989FA5",
"; 	c #5F6366",
"> 	c #CFD2D4",
", 	c #5A5E61",
"' 	c #CFD2D5",
") 	c #6E737E",
"! 	c #535666",
"~ 	c #6F747F",
"{ 	c #55595D",
"] 	c #C9CCCF",
"^ 	c #8F969C",
"/ 	c #90979D",
"( 	c #8F979D",
"_ 	c #4F5457",
": 	c #C5C9CB",
"< 	c #858D93",
"[ 	c #868E94",
"} 	c #868E95",
"| 	c #494E52",
"1 	c #BFC3C6",
"2 	c #7A8289",
"3 	c #7B838A",
"4 	c #42474C",
"5 	c #B9BDC1",
"6 	c #6E767D",
"7 	c #6E777E",
"8 	c #E9E9E9",
"9 	c #6E777F",
"0 	c #6E7880",
"a 	c #0D151B",
"b 	c #8F959B",
"c 	c #16232E",
"d 	c #15232E",
"e 	c #16232F",
"f 	c #16242F",
"g 	c #172530",
"h 	c #172531",
"i 	c #0E171D",
"j 	c #90969D",
"k 	c #172430",
"l 	c #172431",
"m 	c #E2E2E2",
"n 	c #172532",
"o 	c #182632",
"p 	c #0F181F",
"q 	c #92999F",
"r 	c #1B2836",
"s 	c #DCDCDC",
"t 	c #1C2938",
"u 	c #1C2A38",
"v 	c #1D2B39",
"w 	c #141C25",
"x 	c #969CA3",
"y 	c #212F3D",
"z 	c #222F3E",
"A 	c #22303E",
"B 	c #D7D7D7",
"C 	c #233140",
"D 	c #233141",
"E 	c #191D23",
"F 	c #999CA2",
"G 	c #29313B",
"H 	c #29313C",
"I 	c #29323C",
"J 	c #424653",
"K 	c #424754",
"L 	c #29323D",
"M 	c #1F232A",
"N 	c #9DA0A6",
"O 	c #323945",
"P 	c #333A46",
"Q 	c #343B47",
"R 	c #343B48",
"S 	c #343C48",
"T 	c #24272F",
"U 	c #A1A5AB",
"V 	c #3C4350",
"W 	c #3C4451",
"X 	c #3D4451",
"Y 	c #3E4552",
"Z 	c #3D4552",
"` 	c #2B2F35",
" .	c #CBCDD0",
"..	c #92969C",
"+.	c #93989D",
"@.	c #93989E",
"#.	c #1B1D20",
"$.	c #1B1E21",
"%.	c #AFB2B4",
"&.	c #B0B3B5",
"*.	c #B0B3B6",
". + + + + + + + + + + + + + + + + + + + + + + + + ",
"@ # $ $ % % % & $ & * * * * * * * * * * = * * - - ",
"; > $ & & & & & & & * * * * * * * * * * - - - - - ",
", ' & & & & & ) ! ! ! ! ! ! ! ! ! ! ~ * - - - - - ",
"{ ] ^ / / / ( ! + + + + + + + + + + ! ( ( ( ( ( ( ",
"_ : < < < < < ! + + + + + + + + + + ! [ } } } } } ",
"| 1 2 2 2 2 2 ! + + ! ! ! ! ! ! + + ! 3 3 3 3 3 3 ",
"4 5 6 7 7 7 7 ! 8 8 ! 7 7 9 9 ! 8 8 ! 9 0 0 0 0 0 ",
"a b c c d d d ! 8 8 ! e e f f ! 8 8 ! g g g g h h ",
"i j k l l k l ! m m ! ! ! ! ! ! m m ! h n n o o o ",
"p q r r r r r ! s s s s s s s s s s ! t u u u v v ",
"w x y z A A A ! B B B B B B B B B B ! C D C D D D ",
"E F G H H I H J ! ! ! ! ! ! ! ! ! ! K I I I I L I ",
"M N O P P P P Q Q Q Q Q Q R R R R R S R R R R R R ",
"T U V W W W X Y Y Y Y Y Y Y Y Y Y Z Y Y Z Y Y Y Z ",
"`  ...........+.+.+.+.+.+.@.@.@.@.@.@.@.@.@.@.@.@.",
"#.#.#.$.$.$.$.$.$.$.$.$.$.$.$.$.$.$.$.$.$.$.$.$.$.",
"%.%.%.%.%.%.%.&.&.&.&.&.&.*.*.*.*.*.*.*.*.*.*.*.*."};
