/* XPM */
static char * C:\Users\Usuario\Downloads\pixmaps\min_xpm[] = {
"25 18 113 2",
"  	c None",
". 	c #CBCFD3",
"+ 	c #292E34",
"@ 	c #FCFCFC",
"# 	c #AFB4B7",
"$ 	c #090F13",
"% 	c #C0C4C6",
"& 	c #959BA0",
"* 	c #98A0A6",
"= 	c #969CA1",
"- 	c #AFB4B8",
"; 	c #969BA0",
"> 	c #959CA1",
", 	c #BBBFC2",
"' 	c #8D9399",
") 	c #90989E",
"! 	c #8E949A",
"~ 	c #8E959A",
"{ 	c #090F14",
"] 	c #B6BABD",
"^ 	c #848B90",
"/ 	c #868F96",
"( 	c #848A90",
"_ 	c #838A90",
": 	c #848B91",
"< 	c #AFB3B7",
"[ 	c #798086",
"} 	c #7C858D",
"| 	c #798187",
"1 	c #798087",
"2 	c #A7ACAF",
"3 	c #6C747A",
"4 	c #707A82",
"5 	c #6D747B",
"6 	c #6D757B",
"7 	c #6C757B",
"8 	c #6D757C",
"9 	c #71787E",
"0 	c #131F28",
"a 	c #172632",
"b 	c #393E4C",
"c 	c #535666",
"d 	c #383F4D",
"e 	c #13202A",
"f 	c #14202A",
"g 	c #727A80",
"h 	c #14202B",
"i 	c #15202B",
"j 	c #192835",
"k 	c #FFFFFF",
"l 	c #15212D",
"m 	c #15222D",
"n 	c #16222D",
"o 	c #757C84",
"p 	c #192532",
"q 	c #1C2B3B",
"r 	c #DCDCDC",
"s 	c #1A2633",
"t 	c #1A2634",
"u 	c #AFB5B9",
"v 	c #7C838B",
"w 	c #212D3A",
"x 	c #1F2B39",
"y 	c #233242",
"z 	c #D7D7D7",
"A 	c #1F2C3A",
"B 	c #1F2D3A",
"C 	c #AFB1B3",
"D 	c #090C0F",
"E 	c #84878C",
"F 	c #2D343E",
"G 	c #272E38",
"H 	c #2A333E",
"I 	c #414653",
"J 	c #272F38",
"K 	c #272F39",
"L 	c #0E1114",
"M 	c #909499",
"N 	c #424852",
"O 	c #323844",
"P 	c #353D49",
"Q 	c #323944",
"R 	c #8A8D90",
"S 	c #282B2F",
"T 	c #434547",
"U 	c #7D8189",
"V 	c #4D535E",
"W 	c #3E4550",
"X 	c #3E4653",
"Y 	c #3A414D",
"Z 	c #3B414E",
"` 	c #3B424E",
" .	c #454A4F",
"..	c #959799",
"+.	c #0F1214",
"@.	c #3C3F41",
"#.	c #95989B",
"$.	c #9A9EA3",
"%.	c #93989E",
"&.	c #91959B",
"*.	c #91969C",
"=.	c #92969C",
"-.	c #141B22",
";.	c #40454A",
">.	c #96999C",
",.	c #24282C",
"'.	c #0C1013",
").	c #080B0E",
"!.	c #0A0E11",
"~.	c #464C51",
"{.	c #939699",
"].	c #B0B3B6",
"^.	c #AFB1B4",
". + @ @ @ @ @ @ @ @ @ @ @ @ @ @ @ @ @ @ @ @ @ @ @ ",
"# $ % & & & * & & & & & & & & & & = = = = = = = = ",
"# $ % & & & * & & & & & & = = = = = = = = = = = = ",
"- $ % & & & * & & ; = = = > = = = = = = = = = = = ",
"- $ , ' ' ' ) ' ' ' ' ' ' ' ' ' ' ! ! ! ~ ~ ~ ~ ~ ",
"- { ] ^ ^ ^ / ( ( ^ _ ^ ^ ^ ^ ^ ( ^ ^ ^ ^ ^ _ : : ",
"- $ < [ [ [ } [ [ [ | 1 | [ | | | | 1 | | | | | | ",
"- $ 2 3 3 3 4 5 3 3 6 6 6 6 7 7 7 7 7 7 8 8 8 8 8 ",
"- $ 9 0 0 0 a 0 b c c c c c c c c c c d e e f e f ",
"- { g h h i j f c k k k k k k k k k k c l l m n n ",
"- { o p p p q p c r r r r r r r r r r c s s s t t ",
"u { v w x x y x c z z z z z z z z z z c A A A B A ",
"C D E F G G H G I c c c c c c c c c c I J J J K K ",
"C L M N O O P O O O O O O O O O O O O O O O O Q Q ",
"R S T U V W X Y Y Y Y Y Y Z Z Z Z Z Z Z Z Z Z ` ` ",
" ...+.@.#.$.%.&.&.&.&.&.&.&.&.&.&.&.&.&.&.&.&.*.=.",
"-.;.>.,.'.).!.).).).).).).).).).).).).).).).).).).",
"-.-.~.{.C C ].C C C C C C C C C C C C C C C C ^.^."};
